<svg xmlns="http://www.w3.org/2000/svg" viewBox="0 0 307.12 100" width="307.12" height="100"><defs><style>.a{fill:#ff4747;}</style></defs><title>Artboard 1</title><path class="a" d="M45,0A45,45,0,1,0,90,45,45,45,0,0,0,45,0ZM27.06,27.28H52.91L49,33.57H23.13ZM70.26,58.7l-3.93-6.28H54.85l3.94-6.28h3.62l-4.38-7L45.81,58.7H13.2l7.85-12.56H15.28l3.92-6.29H44.41l-3.92,6.29h-12l-3.93,6.28H42.32L58,27.28,77.66,58.7Z"/><path class="a" d="M307.12,30.6H294.3L280.61,58.94l-14-28.34H253l20.63,42L259.79,100h13.3ZM224.51,68.38c-7.42,0-13.4-5.68-13.4-13.78s6-13.79,13.4-13.79,13.4,5.69,13.4,13.79S232,68.38,224.51,68.38m-2.12,11a22.41,22.41,0,0,0,15.42-6V78.7h12.25V30.6H237.81v5.3a20.93,20.93,0,0,0-14.94-6.07c-12.53,0-23.9,10.41-23.9,24.77s11.18,24.77,23.42,24.77m-29.78-72-12.24,3.85V78.7h12.24ZM150.1,42.74H134.68V23.08H150.1c6.36,0,10.8,4.05,10.8,9.83s-4.44,9.83-10.8,9.83M121.37,11.22V78.7h13.31V54.12h16.38c13.21,0,23-9.16,23-21.59s-9.45-21.31-22.55-21.31Z"/></svg>